<svg width="25" height="25" viewBox="0 0 25 25" fill="none" xmlns="http://www.w3.org/2000/svg">
<path d="M12.5 20.4545C12.7472 20.4545 12.9889 20.3879 13.1945 20.263C13.4 20.1382 13.5602 19.9607 13.6549 19.753C13.7495 19.5454 13.7742 19.3169 13.726 19.0965C13.6778 18.8761 13.5587 18.6736 13.3839 18.5147C13.2091 18.3557 12.9863 18.2475 12.7439 18.2037C12.5014 18.1598 12.2501 18.1823 12.0216 18.2683C11.7932 18.3543 11.598 18.5 11.4607 18.6869C11.3233 18.8737 11.25 19.0934 11.25 19.3182C11.25 19.6196 11.3817 19.9086 11.6161 20.1217C11.8505 20.3348 12.1685 20.4545 12.5 20.4545ZM18.75 20.4545C18.9972 20.4545 19.2389 20.3879 19.4445 20.263C19.65 20.1382 19.8102 19.9607 19.9049 19.753C19.9995 19.5454 20.0242 19.3169 19.976 19.0965C19.9278 18.8761 19.8087 18.6736 19.6339 18.5147C19.4591 18.3557 19.2363 18.2475 18.9939 18.2037C18.7514 18.1598 18.5001 18.1823 18.2716 18.2683C18.0432 18.3543 17.848 18.5 17.7107 18.6869C17.5733 18.8737 17.5 19.0934 17.5 19.3182C17.5 19.6196 17.6317 19.9086 17.8661 20.1217C18.1005 20.3348 18.4185 20.4545 18.75 20.4545ZM18.75 15.9091C18.9972 15.9091 19.2389 15.8424 19.4445 15.7176C19.65 15.5927 19.8102 15.4152 19.9049 15.2076C19.9995 15 20.0242 14.7715 19.976 14.551C19.9278 14.3306 19.8087 14.1281 19.6339 13.9692C19.4591 13.8103 19.2363 13.702 18.9939 13.6582C18.7514 13.6144 18.5001 13.6369 18.2716 13.7229C18.0432 13.8089 17.848 13.9545 17.7107 14.1414C17.5733 14.3283 17.5 14.548 17.5 14.7727C17.5 15.0741 17.6317 15.3631 17.8661 15.5763C18.1005 15.7894 18.4185 15.9091 18.75 15.9091ZM12.5 15.9091C12.7472 15.9091 12.9889 15.8424 13.1945 15.7176C13.4 15.5927 13.5602 15.4152 13.6549 15.2076C13.7495 15 13.7742 14.7715 13.726 14.551C13.6778 14.3306 13.5587 14.1281 13.3839 13.9692C13.2091 13.8103 12.9863 13.702 12.7439 13.6582C12.5014 13.6144 12.2501 13.6369 12.0216 13.7229C11.7932 13.8089 11.598 13.9545 11.4607 14.1414C11.3233 14.3283 11.25 14.548 11.25 14.7727C11.25 15.0741 11.3817 15.3631 11.6161 15.5763C11.8505 15.7894 12.1685 15.9091 12.5 15.9091ZM21.25 2.27273H20V1.13636C20 0.834981 19.8683 0.545943 19.6339 0.332833C19.3995 0.119724 19.0815 0 18.75 0C18.4185 0 18.1005 0.119724 17.8661 0.332833C17.6317 0.545943 17.5 0.834981 17.5 1.13636V2.27273H7.5V1.13636C7.5 0.834981 7.3683 0.545943 7.13388 0.332833C6.89946 0.119724 6.58152 0 6.25 0C5.91848 0 5.60054 0.119724 5.36612 0.332833C5.1317 0.545943 5 0.834981 5 1.13636V2.27273H3.75C2.75544 2.27273 1.80161 2.6319 1.09835 3.27123C0.395088 3.91056 0 4.77767 0 5.68182V21.5909C0 22.4951 0.395088 23.3622 1.09835 24.0015C1.80161 24.6408 2.75544 25 3.75 25H21.25C22.2446 25 23.1984 24.6408 23.9017 24.0015C24.6049 23.3622 25 22.4951 25 21.5909V5.68182C25 4.77767 24.6049 3.91056 23.9017 3.27123C23.1984 2.6319 22.2446 2.27273 21.25 2.27273ZM22.5 21.5909C22.5 21.8923 22.3683 22.1813 22.1339 22.3944C21.8995 22.6075 21.5815 22.7273 21.25 22.7273H3.75C3.41848 22.7273 3.10054 22.6075 2.86612 22.3944C2.6317 22.1813 2.5 21.8923 2.5 21.5909V11.3636H22.5V21.5909ZM22.5 9.09091H2.5V5.68182C2.5 5.38044 2.6317 5.0914 2.86612 4.87829C3.10054 4.66518 3.41848 4.54545 3.75 4.54545H5V5.68182C5 5.9832 5.1317 6.27224 5.36612 6.48535C5.60054 6.69846 5.91848 6.81818 6.25 6.81818C6.58152 6.81818 6.89946 6.69846 7.13388 6.48535C7.3683 6.27224 7.5 5.9832 7.5 5.68182V4.54545H17.5V5.68182C17.5 5.9832 17.6317 6.27224 17.8661 6.48535C18.1005 6.69846 18.4185 6.81818 18.75 6.81818C19.0815 6.81818 19.3995 6.69846 19.6339 6.48535C19.8683 6.27224 20 5.9832 20 5.68182V4.54545H21.25C21.5815 4.54545 21.8995 4.66518 22.1339 4.87829C22.3683 5.0914 22.5 5.38044 22.5 5.68182V9.09091ZM6.25 15.9091C6.49723 15.9091 6.7389 15.8424 6.94446 15.7176C7.15002 15.5927 7.31024 15.4152 7.40485 15.2076C7.49946 15 7.52421 14.7715 7.47598 14.551C7.42775 14.3306 7.3087 14.1281 7.13388 13.9692C6.95907 13.8103 6.73634 13.702 6.49386 13.6582C6.25139 13.6144 6.00005 13.6369 5.77165 13.7229C5.54324 13.8089 5.34801 13.9545 5.21066 14.1414C5.07331 14.3283 5 14.548 5 14.7727C5 15.0741 5.1317 15.3631 5.36612 15.5763C5.60054 15.7894 5.91848 15.9091 6.25 15.9091ZM6.25 20.4545C6.49723 20.4545 6.7389 20.3879 6.94446 20.263C7.15002 20.1382 7.31024 19.9607 7.40485 19.753C7.49946 19.5454 7.52421 19.3169 7.47598 19.0965C7.42775 18.8761 7.3087 18.6736 7.13388 18.5147C6.95907 18.3557 6.73634 18.2475 6.49386 18.2037C6.25139 18.1598 6.00005 18.1823 5.77165 18.2683C5.54324 18.3543 5.34801 18.5 5.21066 18.6869C5.07331 18.8737 5 19.0934 5 19.3182C5 19.6196 5.1317 19.9086 5.36612 20.1217C5.60054 20.3348 5.91848 20.4545 6.25 20.4545Z" fill="white"/>
</svg>
