<svg width="20" height="21" viewBox="0 0 20 21" fill="none" xmlns="http://www.w3.org/2000/svg">
<path d="M1.625 10.5C1.32663 10.5 1.04048 10.6097 0.829505 10.8051C0.618527 11.0004 0.5 11.2654 0.5 11.5417V19.875C0.5 20.1513 0.618527 20.4162 0.829505 20.6116C1.04048 20.8069 1.32663 20.9167 1.625 20.9167C1.92337 20.9167 2.20952 20.8069 2.42049 20.6116C2.63147 20.4162 2.75 20.1513 2.75 19.875V11.5417C2.75 11.2654 2.63147 11.0004 2.42049 10.8051C2.20952 10.6097 1.92337 10.5 1.625 10.5ZM7.25 0.0833282C6.95163 0.0833282 6.66548 0.193075 6.45451 0.388425C6.24353 0.583776 6.125 0.848728 6.125 1.12499V19.875C6.125 20.1513 6.24353 20.4162 6.45451 20.6116C6.66548 20.8069 6.95163 20.9167 7.25 20.9167C7.54837 20.9167 7.83452 20.8069 8.04549 20.6116C8.25647 20.4162 8.375 20.1513 8.375 19.875V1.12499C8.375 0.848728 8.25647 0.583776 8.04549 0.388425C7.83452 0.193075 7.54837 0.0833282 7.25 0.0833282V0.0833282ZM18.5 14.6667C18.2016 14.6667 17.9155 14.7764 17.7045 14.9718C17.4935 15.1671 17.375 15.4321 17.375 15.7083V19.875C17.375 20.1513 17.4935 20.4162 17.7045 20.6116C17.9155 20.8069 18.2016 20.9167 18.5 20.9167C18.7984 20.9167 19.0845 20.8069 19.2955 20.6116C19.5065 20.4162 19.625 20.1513 19.625 19.875V15.7083C19.625 15.4321 19.5065 15.1671 19.2955 14.9718C19.0845 14.7764 18.7984 14.6667 18.5 14.6667ZM12.875 6.33333C12.5766 6.33333 12.2905 6.44307 12.0795 6.63843C11.8685 6.83378 11.75 7.09873 11.75 7.37499V19.875C11.75 20.1513 11.8685 20.4162 12.0795 20.6116C12.2905 20.8069 12.5766 20.9167 12.875 20.9167C13.1734 20.9167 13.4595 20.8069 13.6705 20.6116C13.8815 20.4162 14 20.1513 14 19.875V7.37499C14 7.09873 13.8815 6.83378 13.6705 6.63843C13.4595 6.44307 13.1734 6.33333 12.875 6.33333Z" fill="white"/>
</svg>
