<svg width="21" height="25" viewBox="0 0 21 25" fill="none" xmlns="http://www.w3.org/2000/svg">
<path fill-rule="evenodd" clip-rule="evenodd" d="M4.63641 10.5845C4.63641 7.41117 7.26163 4.83865 10.5 4.83865C13.7384 4.83865 16.3636 7.41117 16.3636 10.5845C16.3636 13.7579 13.7384 16.3304 10.5 16.3304C7.26163 16.3304 4.63641 13.7579 4.63641 10.5845ZM10.5 6.65314C8.28427 6.65314 6.48807 8.41329 6.48807 10.5845C6.48807 12.7558 8.28427 14.5159 10.5 14.5159C12.7157 14.5159 14.5119 12.7558 14.5119 10.5845C14.5119 8.41329 12.7157 6.65314 10.5 6.65314Z" fill="white"/>
<path fill-rule="evenodd" clip-rule="evenodd" d="M0.037339 9.20172C0.474735 4.00185 4.90903 0 10.2334 0H10.7666C16.091 0 20.5253 4.00185 20.9627 9.20172C21.1976 11.995 20.3171 14.7686 18.5066 16.9384L12.5899 24.0292C11.5097 25.3236 9.49026 25.3236 8.41012 24.0292L2.49338 16.9384C0.682879 14.7686 -0.197623 11.995 0.037339 9.20172ZM10.2334 1.81449C5.8727 1.81449 2.24097 5.09204 1.88274 9.35078C1.68719 11.6756 2.42001 13.984 3.92684 15.7898L9.84358 22.8806C10.1828 23.2872 10.8172 23.2872 11.1564 22.8806L17.0732 15.7898C18.58 13.984 19.3128 11.6756 19.1173 9.35078C18.759 5.09204 15.1273 1.81449 10.7666 1.81449H10.2334Z" fill="white"/>
</svg>
