<svg width="25" height="25" viewBox="0 0 25 25" fill="none" xmlns="http://www.w3.org/2000/svg">
<path fill-rule="evenodd" clip-rule="evenodd" d="M12.5 2.14286C6.77991 2.14286 2.14286 6.77991 2.14286 12.5C2.14286 18.2201 6.77991 22.8571 12.5 22.8571C18.2201 22.8571 22.8571 18.2201 22.8571 12.5C22.8571 6.77991 18.2201 2.14286 12.5 2.14286ZM0 12.5C0 5.59644 5.59644 0 12.5 0C19.4036 0 25 5.59644 25 12.5C25 19.4036 19.4036 25 12.5 25C5.59644 25 0 19.4036 0 12.5Z" fill="white"/>
<path fill-rule="evenodd" clip-rule="evenodd" d="M10.8568 8.65536C9.52317 9.75256 8.63219 11.2958 8.34882 12.9994L7.72319 16.7606C7.39831 18.7137 9.66936 20.0249 11.1984 18.767L14.1429 16.3446C15.4765 15.2474 16.3675 13.7042 16.6509 12.0006L17.2765 8.23938C17.6014 6.28621 15.3304 4.97501 13.8013 6.23295L10.8568 8.65536ZM12.5 10.3571C11.3165 10.3571 10.3571 11.3165 10.3571 12.5C10.3571 13.6835 11.3165 14.6429 12.5 14.6429C13.6835 14.6429 14.6429 13.6835 14.6429 12.5C14.6429 11.3165 13.6835 10.3571 12.5 10.3571Z" fill="white"/>
</svg>
