<svg width="43" height="43" viewBox="0 0 43 43" fill="none" xmlns="http://www.w3.org/2000/svg">
<path d="M31.0675 9.78266C30.6423 9.78266 30.2266 9.90876 29.873 10.145C29.5194 10.3812 29.2439 10.717 29.0811 11.1099C28.9184 11.5028 28.8758 11.935 28.9588 12.3521C29.0417 12.7692 29.2465 13.1523 29.5472 13.4529C29.8479 13.7536 30.231 13.9584 30.648 14.0414C31.0651 14.1243 31.4974 14.0817 31.8903 13.919C32.2831 13.7563 32.6189 13.4807 32.8551 13.1271C33.0914 12.7736 33.2175 12.3579 33.2175 11.9327C33.2175 11.3624 32.991 10.8156 32.5878 10.4124C32.1846 10.0092 31.6377 9.78266 31.0675 9.78266ZM39.3092 14.1185C39.2743 12.6319 38.9959 11.1612 38.485 9.76475C38.0294 8.56994 37.3204 7.48804 36.4066 6.5935C35.5195 5.67513 34.435 4.97056 33.2354 4.53308C31.8427 4.00662 30.3703 3.72183 28.8816 3.691C26.9825 3.5835 26.3733 3.5835 21.5 3.5835C16.6266 3.5835 16.0175 3.5835 14.1183 3.691C12.6297 3.72183 11.1573 4.00662 9.76456 4.53308C8.56715 4.97499 7.48365 5.67896 6.59331 6.5935C5.67495 7.48069 4.97038 8.56512 4.5329 9.76475C4.00643 11.1575 3.72165 12.6299 3.69081 14.1185C3.58331 16.0177 3.58331 16.6268 3.58331 21.5002C3.58331 26.3735 3.58331 26.9827 3.69081 28.8818C3.72165 30.3704 4.00643 31.8428 4.5329 33.2356C4.97038 34.4352 5.67495 35.5196 6.59331 36.4068C7.48365 37.3214 8.56715 38.0253 9.76456 38.4672C11.1573 38.9937 12.6297 39.2785 14.1183 39.3093C16.0175 39.4168 16.6266 39.4168 21.5 39.4168C26.3733 39.4168 26.9825 39.4168 28.8816 39.3093C30.3703 39.2785 31.8427 38.9937 33.2354 38.4672C34.435 38.0298 35.5195 37.3252 36.4066 36.4068C37.3244 35.5156 38.0341 34.4328 38.485 33.2356C38.9959 31.8391 39.2743 30.3684 39.3092 28.8818C39.3092 26.9827 39.4166 26.3735 39.4166 21.5002C39.4166 16.6268 39.4166 16.0177 39.3092 14.1185ZM36.0841 28.6668C36.0711 29.8041 35.8651 30.931 35.475 31.9993C35.1889 32.7791 34.7294 33.4836 34.1312 34.0597C33.5501 34.6519 32.847 35.1104 32.0708 35.4035C31.0024 35.7936 29.8756 35.9996 28.7383 36.0127C26.9466 36.1022 26.2837 36.1202 21.5716 36.1202C16.8596 36.1202 16.1966 36.1202 14.405 36.0127C13.2241 36.0348 12.0482 35.8529 10.9291 35.4752C10.187 35.1671 9.51616 34.7097 8.95831 34.1314C8.36364 33.5558 7.90991 32.8507 7.63248 32.071C7.19506 30.9873 6.95244 29.8349 6.91581 28.6668C6.91581 26.8752 6.80831 26.2122 6.80831 21.5002C6.80831 16.7881 6.80831 16.1252 6.91581 14.3335C6.92384 13.1708 7.1361 12.0186 7.5429 10.9293C7.85831 10.1731 8.34245 9.49897 8.95831 8.9585C9.50265 8.34246 10.1754 7.85321 10.9291 7.52516C12.0213 7.13107 13.1723 6.9251 14.3333 6.916C16.125 6.916 16.7879 6.8085 21.5 6.8085C26.2121 6.8085 26.875 6.8085 28.6666 6.916C29.8039 6.92904 30.9308 7.13502 31.9991 7.52516C32.8133 7.82733 33.5441 8.3186 34.1312 8.9585C34.7184 9.50886 35.1771 10.1817 35.475 10.9293C35.8732 12.0203 36.0793 13.1721 36.0841 14.3335C36.1737 16.1252 36.1917 16.7881 36.1917 21.5002C36.1917 26.2122 36.1737 26.8752 36.0841 28.6668ZM21.5 12.3089C19.6829 12.3125 17.9076 12.8545 16.3985 13.8666C14.8894 14.8787 13.7141 16.3154 13.0212 17.9952C12.3282 19.675 12.1488 21.5225 12.5054 23.3042C12.8621 25.086 13.7389 26.722 15.025 28.0057C16.3112 29.2893 17.9489 30.1629 19.7314 30.5161C21.5138 30.8693 23.3609 30.6862 25.0394 29.99C26.7178 29.2939 28.1522 28.1158 29.1614 26.6047C30.1705 25.0936 30.7091 23.3173 30.7091 21.5002C30.7115 20.291 30.4748 19.0933 30.0126 17.9759C29.5504 16.8585 28.8719 15.8435 28.016 14.9893C27.1602 14.1351 26.1439 13.4586 25.0256 12.9986C23.9073 12.5386 22.7092 12.3042 21.5 12.3089ZM21.5 27.4664C20.32 27.4664 19.1665 27.1165 18.1853 26.4609C17.2042 25.8053 16.4395 24.8735 15.9879 23.7833C15.5363 22.6932 15.4182 21.4935 15.6484 20.3362C15.8786 19.1789 16.4468 18.1158 17.2812 17.2814C18.1156 16.447 19.1787 15.8788 20.336 15.6486C21.4934 15.4183 22.693 15.5365 23.7832 15.9881C24.8734 16.4396 25.8052 17.2043 26.4607 18.1855C27.1163 19.1666 27.4662 20.3202 27.4662 21.5002C27.4662 22.2837 27.3119 23.0595 27.0121 23.7833C26.7122 24.5072 26.2728 25.1649 25.7188 25.7189C25.1647 26.273 24.507 26.7124 23.7832 27.0123C23.0593 27.3121 22.2835 27.4664 21.5 27.4664Z" fill="white"/>
</svg>
