<svg width="25" height="25" viewBox="0 0 25 25" fill="none" xmlns="http://www.w3.org/2000/svg">
<path fill-rule="evenodd" clip-rule="evenodd" d="M5.64516 6.25771C5.64516 2.80167 8.71418 0 12.5 0C16.2858 0 19.3548 2.80167 19.3548 6.25771C19.3548 9.71375 16.2858 12.5154 12.5 12.5154C8.71418 12.5154 5.64516 9.71375 5.64516 6.25771ZM12.5 2.2086C10.0503 2.2086 8.06452 4.02145 8.06452 6.25771C8.06452 8.49397 10.0503 10.3068 12.5 10.3068C14.9496 10.3068 16.9355 8.49397 16.9355 6.25771C16.9355 4.02145 14.9496 2.2086 12.5 2.2086Z" fill="white"/>
<path fill-rule="evenodd" clip-rule="evenodd" d="M6.04839 16.9326C4.04413 16.9326 2.41935 18.4159 2.41935 20.2455V21.9952C2.41935 22.0218 2.4405 22.0445 2.46931 22.0488C9.11246 23.0389 15.8875 23.0389 22.5307 22.0488C22.5595 22.0445 22.5806 22.0218 22.5806 21.9952V20.2455C22.5806 18.4159 20.9559 16.9326 18.9516 16.9326H18.4018C18.3593 16.9326 18.3171 16.9388 18.2767 16.9508L16.8807 17.3669C14.0342 18.2154 10.9658 18.2154 8.11933 17.3669L6.72334 16.9508C6.68293 16.9388 6.64069 16.9326 6.59818 16.9326H6.04839ZM0 20.2455C0 17.1961 2.70795 14.724 6.04839 14.724H6.59818C6.89574 14.724 7.19144 14.767 7.47431 14.8513L8.8703 15.2674C11.2288 15.9705 13.7712 15.9705 16.1297 15.2674L17.5257 14.8513C17.8086 14.767 18.1043 14.724 18.4018 14.724H18.9516C22.292 14.724 25 17.1961 25 20.2455V21.9952C25 23.1042 24.1195 24.0498 22.9205 24.2286C16.0192 25.2571 8.9808 25.2571 2.07947 24.2286C0.880457 24.0498 0 23.1042 0 21.9952V20.2455Z" fill="white"/>
</svg>
