<svg width="43" height="43" viewBox="0 0 43 43" fill="none" xmlns="http://www.w3.org/2000/svg">
<path d="M39.8908 4.34965C39.3807 3.92526 38.7651 3.64713 38.1094 3.54484C37.4538 3.44255 36.7827 3.51994 36.1675 3.76877L4.05924 16.7321C3.37258 17.0146 2.78808 17.4993 2.38331 18.1218C1.97854 18.7442 1.77265 19.4751 1.79297 20.2173C1.81328 20.9595 2.05884 21.678 2.49704 22.2774C2.93525 22.8768 3.54538 23.3288 4.24646 23.5733L10.7413 25.8322L14.3613 37.8034C14.4105 37.9633 14.4819 38.1156 14.5734 38.2556C14.5873 38.2771 14.6069 38.2931 14.6216 38.314C14.7274 38.4615 14.8551 38.5919 15.0005 38.7006C15.0418 38.7321 15.0814 38.7616 15.1256 38.7896C15.2956 38.9025 15.484 38.985 15.6823 39.0335L15.7035 39.0353L15.7155 39.0404C15.8347 39.0647 15.956 39.077 16.0777 39.0771C16.0894 39.0771 16.0998 39.0716 16.1114 39.0713C16.295 39.0681 16.4769 39.0365 16.6508 38.9776C16.6913 38.9638 16.726 38.9408 16.7652 38.9242C16.8949 38.8704 17.0178 38.8015 17.1312 38.7189C17.2221 38.6423 17.313 38.5658 17.404 38.4893L22.2453 33.144L29.4662 38.7377C30.1019 39.2326 30.8844 39.5017 31.6901 39.5023C32.5343 39.5013 33.3524 39.21 34.0074 38.6773C34.6623 38.1447 35.1143 37.4031 35.2874 36.5768L41.1331 7.8805C41.2656 7.23464 41.2199 6.56491 41.0011 5.94298C40.7823 5.32104 40.3985 4.77029 39.8908 4.34965ZM16.7881 26.4026C16.5397 26.65 16.3699 26.9653 16.3 27.3089L15.7454 30.0036L14.3407 25.3576L21.6242 21.5648L16.7881 26.4026ZM31.6621 35.905L23.1289 29.2947C22.7719 29.0188 22.3241 28.8876 21.8747 28.9272C21.4252 28.9667 21.0072 29.1742 20.7039 29.5082L19.1534 31.2196L19.7013 28.5563L32.3917 15.866C32.6946 15.5635 32.8792 15.1625 32.9119 14.7356C32.9447 14.3088 32.8235 13.8844 32.5703 13.5392C32.3172 13.194 31.9487 12.9509 31.5318 12.8539C31.1148 12.7569 30.6769 12.8125 30.2974 13.0105L12.0846 22.4931L5.41175 20.0512L37.6232 7.16484L31.6621 35.905Z" fill="white"/>
</svg>
